<svg width="80" height="40" viewBox="0 0 80 40" fill="none" xmlns="http://www.w3.org/2000/svg">
  <rect x="0.5" y="0.5" width="79" height="39" rx="3.5" stroke="#979797" />
  <path d="M14 20C14 18.3431 15.3431 17 17 17H63C64.6569 17 66 18.3431 66 20V28C66 29.6569 64.6569 31 63 31H17C15.3431 31 14 29.6569 14 28V20Z" fill="#F3F3F3" stroke="#979797" />
  <path d="M23 23L23 25.5C23 26.3284 22.3284 27 21.5 27L18.5 27C17.6716 27 17 26.3284 17 25.5L17 23C17 22.1716 17.6716 21.5 18.5 21.5L21.5 21.5C22.3284 21.5 23 22.1716 23 23Z" fill="#979797" />
  <path d="M38 23L38 25.5C38 26.3284 37.3284 27 36.5 27L33.5 27C32.6716 27 32 26.3284 32 25.5L32 23C32 22.1716 32.6716 21.5 33.5 21.5L36.5 21.5C37.3284 21.5 38 22.1716 38 23Z" fill="#979797" />
  <path d="M53 23L53 25.5C53 26.3284 52.3284 27 51.5 27L48.5 27C47.6716 27 47 26.3284 47 25.5L47 23C47 22.1716 47.6716 21.5 48.5 21.5L51.5 21.5C52.3284 21.5 53 22.1716 53 23Z" fill="#979797" />
</svg>

